<?xml version="1.0" encoding="utf-8"?>
<!-- Generator: Adobe Illustrator 19.2.1, SVG Export Plug-In . SVG Version: 6.00 Build 0)  -->
<svg version="1.1" id="layer" xmlns="http://www.w3.org/2000/svg" xmlns:xlink="http://www.w3.org/1999/xlink" x="0px" y="0px"
	 viewBox="0 0 652 652" style="enable-background:new 0 0 652 652;" xml:space="preserve">
<style type="text/css">
	.st0{fill:#AA1F23;}
</style>
<g>
	<g>
		<path class="st0" d="M308.6,390c9.2-8.5,15.4-21.4,14.8-37.2c0-0.3-0.2-0.6-0.5-0.6c-0.2,0-0.6,0.2-0.9,0.3
			c-3.8,1.7-9.6,2.8-14.8,2.8c-9.6,0-18.8-3.5-26-9.8c-7.8,8.3-18.6,13-29.9,13c-9,0-17.5-2.8-24.7-8.2
			c-7.8,9.2-19.1,14.4-32.2,14.9c-8.7,0.3-18-2.4-25.1-7.1c-6.9,8.7-16.2,13.9-27.7,15.4c-29.1,3.9-45,8-62.3,21.9l-1.7,1.4
			l-5.1-5.9l1.8-1.5c17.4-14.2,19.8-30.2,19.8-44l0-117.7c-11.7,0.6-24,0.9-35.2,1c-5.3,0-9.7,4.5-9.7,10.4c0,5.4,3.8,10.2,12,10.8
			C55.1,252,48,252.1,43,251c-6.9-1.4-13.6-4.7-18.1-11.3v0c-4.4-6.2-5.2-15.2-3.3-22.2c3.1-11.3,14.4-19,27.2-19.4l0,0l0,0
			c33,0.1,68.1-2.2,101.5-6.7c19.2-2.6,38.2-5.9,56.3-10.1c0.5,9.8-1.8,17.6-6.2,23.6c-5.1,7-13.1,11.3-23.3,13.2
			c-17.1,3.1-34.8,5.5-52.7,7.2l-0.1,109.2c0,7,5.7,12.6,12.6,12.6c7,0,12.6-5.7,12.6-12.6l0-24.2c0-12.8,2-25.3,5.6-34.4
			c8.8-22.4,27.7-34.8,53.2-34.8c0.8,0,1.7,0,2.5,0c0.8,0,1.6,0,2.5,0c7.6,0,15-0.2,21.9-2.6l3-1l0.1,77.8c0,8.1,6.6,14.7,14.7,14.7
			s14.7-6.6,14.7-14.7l0-55.1c0-2.7-2.3-4.9-5-4.9c-1.6,0-3.4,0.9-4.3,2.2c-0.9-11.8,8.7-21.1,19.8-21.1c11,0,19.9,8.9,19.9,19.9
			l-0.1,57.9c0,7,5.7,12.7,12.7,12.7c7,0,12.7-5.7,12.7-12.7v-75.1h30.3l0,74.4c0,7.7,6.2,13.9,13.9,13.9c7.7,0,13.9-6.2,13.9-13.9
			l0-124.4c0-4.3-3.5-7.7-7.7-7.7h-2.3v-7.6l40.2,0.1V320c0,6.2,5,11.2,11.2,11.2c6.2,0,11.2-5,11.2-11.2l0-24
			c0-35.1,18.9-59.6,46-59.6c10.7,0,19.7,3.9,30.1,12.9c1.2,1,2.3,2.1,3.4,3.1c6.1,5.5,10.4,9.4,16.1,9.4c6.2,0,10.4-2.8,15.9-10.9
			c4.1-5.9,9.7-9,16.3-9c5.6,0,10.6,2.3,14.4,6.8c5.5-3.3,11.5-5,17.9-5c9.2,0,18.1,3.7,25.1,10.5l1.3,1.3l-13.8,22.8
			c-4.1-3.8-8.9-5.9-13-5.9c-9.2,0-16.7,7.5-16.7,16.7l0.1,57.9c0,8.2,2.4,19.6,13.9,27.2l1.4,1l-2.4,7.3l-2.3-1
			c-17.3-7.5-35.6-12.2-54.3-14.1l-2-0.2V360l2.2,0c8.3-0.2,13-5.1,13-13.6l0.1-50.3c0-5.7-4.6-10.3-10.3-10.3
			c-5.7,0-10.3,4.6-10.3,10.3l-0.1,9c0,35.1-18.9,59.6-46,59.6c-12.6,0-23.6-5.2-31.8-15c-7.4,6.4-16.7,9.9-26.3,9.9
			c-11.6,0-22.4-4.9-30.1-13.5c-7,6.3-16,9.8-25.5,9.8c-4.3,0-8.5-0.7-12.6-2.1c-0.1,15.6-4,28-10.8,38.4c-8.6,13.2-21.2,20-36.5,20
			c-10.2,0.1-24.2-5-30.5-16.4c3.9,1.8,7.9,2.7,12.2,2.7C295.6,398.4,302.6,395.5,308.6,390 M208,269.9c-7.2,0.1-13.2,2.4-18.3,7
			c-2.3,2.1-5.5,6.9-6.7,10.2c-2.4,6.2-3.7,13.6-3.7,20.2v0.8c0,7.4,0,13.8,3.7,21.2c3.5,6.9,9.4,7.6,11.8,7.6
			c7.7,0,13.4-6.6,13.4-15.7L208,269.9z M480.1,266.7c-4.7,0-15.7,2.9-15.7,29.5v8.7c0,26.6,11,29.5,15.7,29.5
			c4.7,0,15.7-2.9,15.7-29.5v-8.7C495.8,269.5,484.8,266.7,480.1,266.7z"/>
		<path class="st0" d="M598.7,382.9c0-4.2,3.3-7.6,7.4-7.6c4.1,0,7.4,3.4,7.4,7.6c0,4.2-3.3,7.5-7.4,7.5
			C602,390.5,598.7,387.1,598.7,382.9z M612.3,382.9c0-3.6-2.8-6.4-6.2-6.4c-3.4,0-6.2,2.8-6.2,6.4c0,3.5,2.8,6.4,6.2,6.4
			C609.5,389.3,612.3,386.4,612.3,382.9z M603.7,379.7c0-0.5-0.1-0.6-0.6-0.6h-0.3v-0.4h3.2c0.7,0,1.7,0,2.3,0.4
			c0.5,0.3,0.9,1,0.9,1.6c0,1.3-1,2-2.1,2.2c0.9,0.2,1.3,1.1,1.6,1.9c0.2,0.4,0.4,1,0.7,1.3c0.2,0.2,0.3,0.3,0.7,0.3v0.4h-1.4
			c-0.3-0.1-0.4-0.1-0.7-0.3c-0.5-0.6-1.1-2.6-1.5-3c-0.3-0.3-0.7-0.3-1-0.3h-0.3v2.6c0,0.4,0.1,0.6,0.5,0.6l0.4,0v0.4h-3.3v-0.4
			h0.3c0.5,0,0.6,0,0.6-0.6L603.7,379.7L603.7,379.7z M605.2,382.5l0.4,0c1.2,0,2.1-0.3,2.1-1.8c0-1.1-0.6-1.7-1.7-1.7l-0.4,0
			c-0.4,0-0.4,0.5-0.4,0.8L605.2,382.5L605.2,382.5z"/>
	</g>
	<path class="st0" d="M110.7,457.9c3-3,4.5-7.1,4.5-12.3c0-2.7-0.5-5.1-1.4-7c-0.7-1.4-1.7-2.8-3-4c-1.3-1.3-3-2.2-4.9-2.9
		c-1.9-0.7-4.2-1-6.9-1c-2.9,0-5.4,0.4-7.7,1.2c-1.7,0.6-3.2,1.6-4.7,3c-1.5,1.4-2.6,3.1-3.4,5c-0.8,1.9-1.2,4.3-1.2,6.9
		c0,2.9,0.5,5.4,1.5,7.6c0.6,1.4,1.6,2.8,2.8,4c1.2,1.2,2.9,2.2,4.8,2.9c1.3,0.5,2.9,0.8,4.5,1c-0.7,0.3-1.2,0.5-1.6,0.8
		c-0.5,0.3-1.6,1-3.3,2.2c-0.9,0.6-1.5,1.1-1.9,1.4l-0.1,0.1l0.6,1.7l0.2-0.1c1.5-0.9,2.5-1.5,3.1-1.7c0.4-0.1,0.8-0.2,1.2-0.2
		c0.5,0,1.4,0.2,2.8,0.5c1,0.2,3,0.8,5.9,1.6c2.2,0.6,3.9,1.1,5.4,1.3c1.1,0.2,1.9,0.3,2.2,0.3h0.1l0,0c0.3-0.2,0.8-0.6,1.4-0.9
		c1.6-1,2.7-1.6,3.2-1.9l0.1,0v-2l-2,0.8c-0.2,0.1-0.4,0.1-0.7,0.2c-0.3,0.1-0.7,0.1-1.1,0.1c-0.4,0-0.8,0-1.4-0.1
		c-0.8-0.1-1.6-0.4-2.4-0.6c-0.4-0.1-1.8-0.6-3.9-1.3c-2.4-0.9-4.5-1.5-6-1.8c0.2,0,0.5,0,0.7,0
		C103.5,462.4,107.7,460.9,110.7,457.9z M94,434.3c1.3-0.6,2.8-1,4.5-1c1.9,0,3.4,0.3,4.6,1c1.2,0.7,2.1,1.6,2.9,2.9
		c0.8,1.3,1.4,2.7,1.7,4.4c0.4,1.7,0.6,3.4,0.6,5.3c0,2.9-0.4,5.4-1.2,7.4c-0.8,2-1.9,3.4-3.3,4.2c-1.4,0.8-3,1.3-4.7,1.3
		c-3.2,0-5.7-1.3-7.4-3.8c-1.7-2.5-2.5-6-2.5-10.3c0-2,0.2-3.8,0.6-5.3c0.4-1.6,1-2.8,1.8-3.8C92.2,435.5,93.1,434.7,94,434.3z"/>
	<path class="st0" d="M149.9,431.2c-0.5,0-2.1-0.1-4.7-0.2l-0.1,0v2.1l0.1,0c1.6,0,2.6,0.2,3.1,0.4c0.2,0.1,0.3,0.3,0.4,0.4
		c0.1,0.4,0.2,1.4,0.3,3.2c0,0.8,0,2.9,0,7v4.4c0,3.1-0.2,5.1-0.7,6.2c-0.5,1.1-1.3,1.9-2.5,2.6c-1.2,0.7-2.8,1-4.7,1
		c-1.7,0-3.2-0.3-4.3-0.8c-1.1-0.5-1.9-1.2-2.5-2c-0.5-0.8-0.9-1.9-1-3.2c-0.1-0.6-0.1-2.3-0.1-4.9l0-2.5v-5c0-3,0.1-5,0.3-5.9
		c0.1-0.3,0.2-0.6,0.4-0.7c0.4-0.3,1.4-0.4,2.9-0.4h0.1v-2.1l-3.9,0.1l-2.9,0.1l-7.2-0.2v2.1l2.9,0.3c0.3,0.2,0.4,0.4,0.5,0.5
		c0.1,0.3,0.2,0.7,0.2,1.3c0.1,1.7,0.1,3.5,0.1,5.5v5.5l0,4.2c0,2.3,0,3.7,0.1,4.2c0.1,0.8,0.4,1.7,0.9,2.7c0.5,0.9,1.2,1.8,2.1,2.5
		c0.9,0.7,2,1.3,3.5,1.8c1.9,0.6,4,0.9,6.2,0.9c1.9,0,3.6-0.2,5-0.6c1.4-0.4,2.7-1,3.8-1.8c1-0.8,1.9-1.7,2.5-2.7
		c0.6-1,1-2.2,1.2-3.6c0.2-1.4,0.3-2.7,0.3-4.1v-5.1c0-1.5,0.1-3.6,0.2-6.2c0.1-2.6,0.2-4,0.3-4.4c0.1-0.3,0.2-0.5,0.4-0.6
		c0.2-0.1,0.8-0.3,2.5-0.3h0.1v-2.1l-5,0.1C150.2,431.2,150,431.2,149.9,431.2z"/>
	<path class="st0" d="M191,459.5c-0.8-0.1-1.1-0.1-1.2-0.1c-0.1-0.1-0.3-0.1-0.4-0.2c-0.1-0.1-0.2-0.3-0.4-0.5l-0.9-2l-1.3-3
		l-9.7-22.7h-3.3l-1.9,5l-5.7,14c-1.1,2.8-1.8,4.5-2.2,5.3c-0.8,1.9-1.3,3-1.5,3.3c-0.2,0.3-0.3,0.5-0.5,0.6
		c-0.1,0.1-0.3,0.2-0.5,0.3c-0.2,0.1-0.9,0.1-2.1,0.2l-0.1,0v2.1l5.1-0.2l5.1,0.2v-2.1l-0.1,0c-2.1-0.1-2.8-0.2-3-0.4
		c-0.2-0.1-0.3-0.3-0.3-0.6c0-0.3,0.2-1.2,1.1-3.7l0.9-2.5h11l1.8,4.7c0.3,0.8,0.5,1.4,0.5,1.7c0,0.2-0.1,0.4-0.3,0.5
		c-0.1,0.1-0.6,0.2-2.9,0.3l-0.1,0v2.1l7.8-0.2l6.2,0.2v-2.1l-0.1,0C191.6,459.6,191.2,459.5,191,459.5z M178,449.7
		c-1.2,0-2.6,0.1-4.3,0.1c-1.7,0-3.2,0-4.4-0.1l4.3-10.7L178,449.7z"/>
	<path class="st0" d="M222.1,453.6c-0.3,1.4-0.6,2.7-0.8,3.8c-0.2,0.5-0.3,0.7-0.3,0.7c0,0-0.2,0.1-1,0.2c-1.6,0.3-3.5,0.4-5.7,0.4
		c-0.7,0-2-0.1-3.9-0.1c0-0.5,0-1.7,0-3.6c0-2,0-4.1,0-6.1c0-2.7,0-4.5,0-5.5l0-0.8c0-2.4,0-4.4,0.1-6c0.1-2,0.2-2.5,0.2-2.6
		c0.1-0.2,0.1-0.3,0.3-0.3c0.3-0.2,1.3-0.3,2.9-0.4l0.1,0v-2.2l-0.2,0c-2.3,0.1-4.9,0.2-7.5,0.2c-2.3,0-4.5-0.1-6.3-0.2l-0.2,0v2.2
		l0.1,0c2.3,0.1,3.1,0.3,3.3,0.4c0.1,0.1,0.2,0.2,0.3,0.3c0.1,0.4,0.2,1.9,0.3,4.6c0,1,0,3.8,0,8.5c0,3.2,0,5.8-0.1,8
		c-0.1,2.2-0.1,3.5-0.2,3.9c0,0.1,0,0.1-0.1,0.2c0,0.1-0.2,0.2-0.5,0.4c-0.7,0.4-1.2,0.7-1.6,0.8l-0.1,0v1.4l0.2,0
		c3-0.1,5.1-0.2,6.5-0.2c0.9,0,2.4,0,5,0.1c3.1,0.1,4.8,0.1,5.1,0.1c1.8,0,3.2,0,4.1-0.1c0.4,0,0.8-0.1,1.3-0.2l0.1,0l0-0.1
		c0-0.3,0.1-1.2,0.2-2.5l0.5-4.4c0,0,0-0.2,0.1-0.7l0-0.2h-2.1L222.1,453.6z"/>
	<path class="st0" d="M240.4,431.2c-2.3,0-4.5-0.1-6.3-0.2l-0.2,0v2.2l0.1,0c1.9,0.1,2.5,0.1,2.7,0.2c0.3,0.1,0.4,0.2,0.4,0.2
		c0.1,0.1,0.1,0.2,0.2,0.4c0.1,0.4,0.2,1.6,0.3,3.4c0,0.8,0,2.7,0,5.5v9.1c0,1.5-0.1,3.1-0.2,4.8c0,0.4-0.1,1.8-0.2,2
		c0,0.1-0.1,0.2-0.2,0.3c-0.1,0.1-0.2,0.1-0.5,0.2c-0.2,0-1.1,0.1-2.6,0.1l-0.1,0v2.2l0.2,0c1.8-0.1,3.9-0.2,6.2-0.2
		c2.7,0,5.2,0.1,7.5,0.2l0.2,0v-2.2l-0.1,0c-1.7,0-2.4-0.1-2.6-0.1c-0.3-0.1-0.5-0.1-0.6-0.2c-0.1-0.1-0.2-0.2-0.2-0.4
		c-0.1-0.4-0.2-1.4-0.2-2.9l-0.1-4v-8.7c0-0.2,0-1.8,0.1-4.6l0-1.2c0-1,0-1.7,0.1-2.1c0-0.7,0.1-1.1,0.2-1.4c0-0.1,0.1-0.2,0.2-0.3
		c0.1-0.1,0.2-0.1,0.5-0.2c0.2,0,0.8-0.1,2.6-0.2l0.1,0v-2.2l-0.2,0C245.5,431.2,243,431.2,240.4,431.2z"/>
	<path class="st0" d="M284.9,431.1c-0.7,0.1-1.3,0.1-2,0.2c-1.2,0-3.6,0.1-7.3,0.1h-8.8c-3.6,0-6,0-7.2-0.1c-0.8,0-1.5-0.1-2.2-0.2
		l-0.1,0l-0.3,0.3l0,0.1c0.1,0.8,0.2,1.4,0.2,2c0,0.3,0,1.7,0.1,4.1l0,1h2.1l0-0.1c0-1.2,0.1-2.4,0.3-3.4c0.1-0.5,0.2-0.7,0.2-0.7
		c0,0,0.1-0.1,0.7-0.1c1.2-0.1,2.6-0.2,4.1-0.2h3c0,0.5,0.1,1.9,0.1,5.8v13c0,3.1-0.1,5-0.2,5.6c-0.1,0.4-0.3,0.6-0.6,0.8
		c-0.2,0.1-0.9,0.3-3,0.3l-0.1,0v2.1l0.2,0c2.7-0.1,5.1-0.2,7.1-0.2c1.9,0,4.2,0.1,7.1,0.2l0.2,0v-2.1l-0.1,0
		c-2.1-0.1-2.8-0.2-3-0.3c-0.3-0.2-0.5-0.4-0.6-0.7c-0.2-0.6-0.2-2.5-0.2-5.6v-13c0-3.2,0-5.2,0.1-5.8h3c1.7,0,3.1,0.1,4.3,0.2
		c0.5,0,0.6,0.1,0.6,0.1c0,0,0.1,0.2,0.2,0.9c0.2,1,0.2,2.1,0.3,3.2l0,0.1h2.1l0-0.1c0-2,0.1-4.6,0.1-4.7c0-0.7,0.1-1.4,0.2-2.3
		l0-0.1L284.9,431.1L284.9,431.1z"/>
	<path class="st0" d="M319.5,431.2c-0.2,0.4-0.7,1.3-1.5,2.7c-2.3,4.1-3.7,6.5-4.1,7.2l-2.6,4.2c-0.4-0.9-1.4-2.8-2.9-5.8
		c-1-2-2.1-3.9-3.2-5.4c-0.7-1.1-1.3-1.8-1.7-2.2c-0.4-0.4-1.1-0.8-2-1.3l-0.1,0l-0.1,0c-0.8,0.2-1.6,0.4-2.4,0.6l-4.7,0.9v1.9h0.1
		c1.4,0,1.8,0.1,1.8,0.1c0.2,0.1,0.6,0.4,1.5,1.4c1.1,1.2,2.2,2.8,3.5,4.7c1.5,2.4,3,4.9,4.4,7.3c0.7,1.3,0.8,1.8,0.8,2v4.1
		c0,1.2,0,2.6-0.1,4.2c-0.1,0.9-0.2,1.2-0.2,1.2c-0.1,0.1-0.3,0.2-0.5,0.3c-0.3,0.1-1.2,0.1-2.9,0.2l-0.1,0v2.2l0.2,0
		c2.2-0.1,4.4-0.2,6.6-0.2c2.2,0,4.7,0.1,7.5,0.2l0.1,0v-2.2l-0.1,0c-2,0-2.6-0.1-2.8-0.2c-0.3-0.1-0.5-0.2-0.6-0.3
		c-0.1-0.1-0.2-0.4-0.3-1.4c-0.1-0.8-0.1-2.2-0.1-4v-3.7c0-0.7,0-1.3,0.1-1.6c0.1-0.4,0.3-1,0.6-1.6c0.5-0.9,1.7-3,3.8-6.1
		c2-3.2,3.9-6,5.7-8.3l0,0v-1.2L319.5,431.2L319.5,431.2z"/>
	<path class="st0" d="M368.5,449.2v2l0.1,0c2.2,0.1,3.6,0.3,4.1,0.4c0.3,0.1,0.4,0.2,0.5,0.3c0.1,0.2,0.2,0.7,0.2,2.4c0,0.3,0,1,0,2
		c0,1-0.1,1.8-0.1,2.2c-0.8,0.4-1.7,0.6-2.6,0.8c-0.9,0.2-1.8,0.3-2.8,0.3c-3.3,0-6.1-1.3-8.3-3.7c-2.3-2.5-3.4-5.9-3.4-10.1
		c0-3.9,1.1-6.9,3.2-9.1c2.1-2.2,5-3.3,8.6-3.3c1.5,0,2.9,0.2,4.1,0.5c1.2,0.4,2.3,0.9,3.2,1.5c0.4,0.3,0.8,0.6,1.1,1
		c0.1,0.4,0.2,1,0.2,1.6c0.1,1,0.1,1.6,0.1,2.1v0.1h2l0-0.1c0.3-3.2,0.6-5.5,1-6.7l0-0.1l-0.2-0.5l-0.1,0c-1.2-0.5-2.9-1-5-1.5
		c-2.1-0.4-4.4-0.7-6.9-0.7c-2,0-3.9,0.2-5.5,0.5c-1.7,0.3-3.3,0.9-4.8,1.7c-1.5,0.8-2.9,1.8-4.1,3.1c-1.2,1.3-2.2,2.8-2.8,4.5
		c-0.7,1.7-1,3.7-1,6c0,2.7,0.5,5.2,1.6,7.4c0.7,1.4,1.6,2.8,2.9,4c1.3,1.2,2.8,2.3,4.5,3c2.5,1.1,5.4,1.7,8.7,1.7c2,0,4-0.2,6-0.6
		c2-0.4,4.4-1.1,7.1-2.1l0.1,0l0-0.1c-0.1-1.1-0.2-2.3-0.2-3.4c0-0.7,0-1.9,0.1-3.6c0-0.8,0.2-1,0.2-1.1c0.2-0.3,0.8-0.5,1.6-0.7
		l0.1,0v-1.7l-6.7,0.1L368.5,449.2z"/>
	<path class="st0" d="M416.6,431.2c-0.5,0-2.1-0.1-4.7-0.2l-0.2,0v2.1l0.1,0c1.6,0,2.6,0.2,3.1,0.4c0.2,0.1,0.3,0.2,0.4,0.4
		c0.2,0.4,0.3,1.4,0.3,3.2c0,0.9,0,3.3,0,7v4.4c0,3-0.3,5.1-0.7,6.2c-0.5,1.1-1.3,1.9-2.5,2.6c-1.2,0.7-2.8,1-4.7,1
		c-1.7,0-3.2-0.3-4.3-0.8c-1.1-0.5-1.9-1.2-2.5-2c-0.5-0.8-0.9-1.9-1-3.2c-0.1-0.6-0.1-2.2-0.1-4.9l0-2.5v-5c0-3,0.1-5,0.3-5.9
		c0.1-0.3,0.2-0.6,0.4-0.7c0.4-0.3,1.4-0.4,2.9-0.4h0.1v-2.1l-3.9,0.1l-2.9,0.1l-7.2-0.2v2.1l2.9,0.3c0.3,0.2,0.4,0.4,0.5,0.5
		c0.1,0.3,0.2,0.7,0.2,1.3c0.1,1.6,0.1,3.4,0.1,5.5v5.5l0,4.2c0,2.3,0,3.7,0.1,4.2c0.1,0.9,0.4,1.7,0.9,2.7c0.5,0.9,1.2,1.8,2.1,2.5
		c0.9,0.7,2,1.3,3.5,1.8c1.9,0.6,4,0.9,6.2,0.9c1.9,0,3.6-0.2,5-0.6c1.4-0.4,2.7-1,3.8-1.8c1-0.8,1.9-1.7,2.5-2.7
		c0.6-1,1-2.2,1.2-3.6c0.2-1.4,0.3-2.7,0.3-4.1v-5.1c0-1.5,0.1-3.6,0.2-6.2c0.1-2.6,0.2-4,0.3-4.4c0.1-0.3,0.2-0.5,0.4-0.6
		c0.2-0.1,0.8-0.3,2.5-0.3h0.1v-2.1l-5,0.1C416.9,431.2,416.7,431.2,416.6,431.2z"/>
	<path class="st0" d="M438.1,431.2c-2.3,0-4.4-0.1-6.3-0.2l-0.2,0v2.2l0.1,0c1.9,0.1,2.5,0.1,2.7,0.2c0.3,0.1,0.4,0.2,0.4,0.2
		c0.1,0.1,0.1,0.2,0.2,0.4c0.1,0.4,0.2,1.6,0.3,3.4c0,0.8,0,2.7,0,5.5v9.1c0,1.4-0.1,3.1-0.2,4.8c-0.1,1.5-0.1,1.9-0.2,2
		c0,0.1-0.1,0.2-0.2,0.3c-0.1,0.1-0.2,0.1-0.5,0.2c-0.2,0-1.1,0.1-2.6,0.1l-0.1,0v2.2l0.2,0c1.8-0.1,3.9-0.2,6.2-0.2
		c2.7,0,5.2,0.1,7.5,0.2l0.2,0v-2.2l-0.1,0c-1.7,0-2.4-0.1-2.6-0.1c-0.3-0.1-0.5-0.1-0.6-0.2c-0.1-0.1-0.2-0.2-0.2-0.4
		c-0.1-0.4-0.2-1.4-0.2-2.9l-0.1-4v-8.7c0-0.2,0-1.9,0.1-5.7c0-1,0-1.7,0.1-2.1c0-0.7,0.1-1.1,0.2-1.4c0-0.1,0.1-0.2,0.2-0.3
		c0.1-0.1,0.2-0.1,0.5-0.2c0.2,0,0.8-0.1,2.6-0.2l0.1,0v-2.2l-0.2,0C443.2,431.2,440.7,431.2,438.1,431.2z"/>
	<path class="st0" d="M482.6,431.1c-0.7,0.1-1.3,0.1-2,0.2c-1.2,0-3.6,0.1-7.3,0.1h-8.8c-3.6,0-6,0-7.2-0.1c-0.8,0-1.5-0.1-2.2-0.2
		l-0.1,0l-0.3,0.3l0,0.1c0.1,0.7,0.2,1.4,0.2,2c0,0.4,0.1,2.1,0.1,5l0,0.1h2.1l0-0.1c0-1.3,0.1-2.4,0.3-3.4c0.1-0.5,0.2-0.6,0.2-0.7
		c0,0,0.1-0.1,0.7-0.1c1.2-0.1,2.6-0.2,4.1-0.2h3c0,0.6,0.1,2.6,0.1,5.8v13c0,3.1-0.1,5-0.2,5.6c-0.1,0.4-0.3,0.6-0.6,0.8
		c-0.2,0.1-0.9,0.3-3,0.3l-0.1,0v2.1l0.2,0c2.7-0.1,5-0.2,7.1-0.2c1.9,0,4.2,0.1,7.1,0.2l0.2,0v-2.1l-0.1,0c-2.1-0.1-2.8-0.2-3-0.3
		c-0.3-0.2-0.5-0.4-0.6-0.7c-0.2-0.6-0.2-2.5-0.2-5.6v-13c0-3.2,0-5.1,0.1-5.8h3c1.7,0,3.1,0.1,4.3,0.2c0.5,0,0.6,0.1,0.6,0.1
		c0,0,0.1,0.2,0.2,0.9c0.2,1,0.3,2.1,0.3,3.2l0,0.1h2.1l0-0.1c0-3.3,0.1-4.6,0.1-4.7c0-0.7,0.1-1.4,0.2-2.3l0-0.1L482.6,431.1
		L482.6,431.1z"/>
	<path class="st0" d="M520.6,459.5c-0.8-0.1-1.1-0.1-1.2-0.1c-0.2-0.1-0.3-0.1-0.4-0.2c-0.1-0.1-0.3-0.3-0.4-0.5l-0.9-2l-1.3-3
		l-9.7-22.7h-3.3l-1.9,5l-5.7,14c-1.1,2.7-1.8,4.4-2.2,5.3c-1,2.3-1.4,3.1-1.5,3.3c-0.2,0.3-0.3,0.5-0.5,0.6
		c-0.1,0.1-0.3,0.2-0.5,0.3c-0.2,0.1-0.9,0.1-2.1,0.2l-0.1,0v2.1l5.1-0.2l5.2,0.2v-2.1l-0.1,0c-2.1-0.1-2.8-0.2-3-0.4
		c-0.2-0.1-0.3-0.3-0.3-0.6c0-0.5,0.4-1.7,1.1-3.7l0.9-2.5h11l1.8,4.7c0.3,0.8,0.5,1.4,0.5,1.7c0,0.2-0.1,0.4-0.3,0.5
		c-0.1,0.1-0.6,0.2-2.9,0.3l-0.1,0v2.1l7.8-0.2l6.2,0.2v-2.1l-0.1,0C521.1,459.6,520.8,459.5,520.6,459.5z M507.5,449.7
		c-1.2,0-2.6,0.1-4.3,0.1c-1.7,0-3.1,0-4.4-0.1l4.3-10.7L507.5,449.7z"/>
	<path class="st0" d="M558.5,459.4c-0.2-0.1-0.4-0.3-0.7-0.5c-0.2-0.2-0.9-1.1-2-2.5c-0.1-0.1-0.5-0.7-1.4-2.2l-3.4-5
		c-0.1-0.1-0.2-0.3-0.2-0.4c-0.1-0.2-0.5-0.8-0.8-1.2c-0.4-0.6-0.8-1.2-1.1-1.8c2.2-0.8,3.8-2,4.9-3.4c1.1-1.5,1.7-3.1,1.7-4.9
		c0-1.5-0.4-2.8-1.2-3.8c-0.8-1-1.8-1.7-3-2.1c-1.1-0.3-2.9-0.5-5.1-0.5c-1.2,0-2.6,0-4.5,0.1c-1.1,0.1-2.4,0.1-3.9,0.1
		c-1.8,0-3.2,0-4.1-0.1c-2-0.1-3.1-0.1-3.5-0.1H530v2.1l0.1,0c1.8,0.1,2.8,0.3,3.1,0.4c0.1,0.1,0.2,0.2,0.3,0.3
		c0.1,0.3,0.2,1.4,0.2,3.2l0.1,4.6v8l-0.2,6.3c0,1.1-0.1,2-0.2,2.5c-0.1,0.4-0.1,0.5-0.2,0.5c-0.1,0.1-0.2,0.1-0.3,0.2
		c-0.3,0.1-1.3,0.2-2.9,0.2l-0.1,0v2.2l0.2,0c1.9-0.1,4-0.2,6.3-0.2c2.5,0,5,0.1,7.5,0.2l0.2,0v-2.2l-0.1,0c-1.7,0-2.3-0.1-2.5-0.1
		c-0.3-0.1-0.5-0.1-0.6-0.2c-0.1-0.1-0.2-0.2-0.2-0.3c-0.1-0.2-0.2-0.6-0.2-1.5c0-0.4-0.1-1.9-0.1-5.1c0-2.5-0.1-4.8-0.1-6.9
		c0-1.3,0-3.9,0.1-8.2c0-1.6,0.1-2.8,0.1-3.4c0.6-0.1,1.3-0.2,1.9-0.2c1.5,0,2.6,0.1,3.2,0.3c0.9,0.3,1.7,0.9,2.3,1.8
		c0.6,0.9,0.9,1.9,0.9,3.2c0,1.3-0.3,2.5-0.9,3.5c-0.6,1-1.3,1.8-2.2,2.2c-0.9,0.4-2.2,0.6-3.9,0.5l-0.1,0l-0.3,0.9l0.1,0.1
		c0.4,0.3,0.9,0.8,1.3,1.4c0.9,1.3,2.1,3,3.4,5.2l4.6,7.7c0.3,0.5,0.4,0.9,0.5,1.2l0,0.1l0.1,0c1.1-0.1,2.3-0.1,3.4-0.1
		c1,0,2.7,0,4.8,0.1l0.1,0v-2.2l-0.1,0C559,459.5,558.6,459.4,558.5,459.4z"/>
	<path class="st0" d="M589.3,448.6c-0.3-0.9-0.6-1.6-1.1-2.1c-0.4-0.6-1-1.1-1.8-1.5c-0.7-0.4-1.7-0.8-2.9-1.1
		c-0.5-0.1-1.4-0.3-2.9-0.5c-1.4-0.3-2.6-0.5-3.5-0.6c-1.1-0.3-1.9-0.6-2.5-0.9c-0.5-0.3-1-0.8-1.2-1.4c-0.3-0.6-0.4-1.3-0.5-2.3
		c0-1.3,0.5-2.4,1.6-3.4c1-1,2.5-1.4,4.5-1.4c1.3,0,2.6,0.2,3.7,0.7c1.1,0.5,1.8,1,2.3,1.6c0.1,0.7,0.2,1.9,0.2,3.5l0,0.1h2.1l0-0.1
		c0-1.5,0.1-2.7,0.2-3.5c0.1-0.9,0.2-1.8,0.4-2.7l0,0l-0.2-0.6l-0.1,0c-1.1-0.5-2.3-0.9-3.8-1.2c-2.8-0.5-6-0.6-8.8,0.1
		c-1.4,0.3-2.7,0.9-3.8,1.6c-1.1,0.8-2,1.8-2.7,3.2c-0.7,1.4-1,2.9-1,4.5c0,1.2,0.2,2.3,0.6,3.3c0.4,1,1,1.9,1.7,2.6
		c0.8,0.7,1.8,1.3,3.1,1.7c0.8,0.3,2.6,0.7,5.2,1.2c1.8,0.4,3.1,0.8,3.8,1.2c0.7,0.4,1.2,0.9,1.5,1.5c0.3,0.6,0.5,1.4,0.5,2.3
		c0,1.1-0.2,2-0.7,2.8c-0.5,0.8-1.2,1.5-2.3,2c-1.1,0.5-2.3,0.7-3.6,0.7c-1.5,0-3-0.3-4.3-1c-1.3-0.7-2.2-1.4-2.7-2.3
		c-0.2-1.6-0.3-2.8-0.2-3.8l0-0.1h-2.1l0,0.1c0,3.3-0.2,5.9-0.7,7.5l0,0.1l0.1,0.1c1.7,0.8,3.2,1.4,4.6,1.7c1.4,0.3,3,0.5,4.8,0.5
		c2.4,0,4.6-0.4,6.3-1.1c1.1-0.4,2.2-1.1,3.2-2c1-0.9,1.9-1.9,2.4-2.9c0.8-1.4,1.2-3.1,1.2-5C589.7,450.5,589.5,449.5,589.3,448.6z"
		/>
</g>
</svg>
