<?xml version="1.0" encoding="utf-8"?>
<!-- Generator: Adobe Illustrator 19.2.1, SVG Export Plug-In . SVG Version: 6.00 Build 0)  -->
<svg version="1.1" id="layer" xmlns="http://www.w3.org/2000/svg" xmlns:xlink="http://www.w3.org/1999/xlink" x="0px" y="0px"
	 viewBox="0 0 652 652" style="enable-background:new 0 0 652 652;" xml:space="preserve">
<style type="text/css">
	.st0{fill:#C6DC93;}
	.st1{clip-path:url(#SVGID_2_);fill:#286421;}
	.st2{fill:#276220;}
	.st3{fill:#276120;}
	.st4{clip-path:url(#SVGID_4_);fill:#286421;}
	.st5{fill:#44A93B;}
	.st6{clip-path:url(#SVGID_6_);fill:#286421;}
	.st7{clip-path:url(#SVGID_8_);fill:#286421;}
	.st8{clip-path:url(#SVGID_10_);fill:#286421;}
	.st9{clip-path:url(#SVGID_12_);fill:#286421;}
	.st10{clip-path:url(#SVGID_14_);fill:#286421;}
	.st11{clip-path:url(#SVGID_16_);fill:#286421;}
	.st12{clip-path:url(#SVGID_18_);fill:#286421;}
	.st13{clip-path:url(#SVGID_20_);fill:#286421;}
	.st14{clip-path:url(#SVGID_22_);fill:#286421;}
	.st15{clip-path:url(#SVGID_24_);fill:#286421;}
</style>
<g>
	<path class="st0" d="M199.8,404.7h-45.4l-10.9-71.2c-0.5,5.6-12,71.2-12,71.2H92.9c0,0-15.1-67.7-15.6-72.5l-5.2,72.5H22.4
		l21.2-157.3l51.5-0.2c0,0,16.1,62.5,16.7,69.9c0.9-10.2,16.7-69.7,16.7-69.7l48.3-0.2L199.8,404.7z"/>
	<path class="st0" d="M344.1,404.3l-56.2,0.4l-2.7-16.8h-30.5l-3,16.8h-54.5l47.8-157.4l54.5,0.1L344.1,404.3z M276.7,345.4
		l-1.9-8.6c-0.1,0-0.1-0.5-0.3-1.3c-0.1-0.7-0.6-3.5-1.5-8.3c-0.1-0.5-0.2-1.3-0.4-2.2c-0.1-0.9-0.3-2.1-0.6-3.6l-0.9-7
		c-0.1,0.7-0.2,1.4-0.4,2.2c-0.2,0.8-0.3,1.7-0.5,2.7c-0.3,2-0.6,3.3-0.7,4.1c-0.1,0.8-0.2,1.2-0.3,1.4l-2.1,8.9l-3,11.6H276.7z"/>
	<path class="st0" d="M490.1,401.6l-43.4-76.2l38.7-75.5c0.1-1.1-1.7-2.1-2.7-2.4h-54.1l-24.4,56.3l0.2-53.9
		c-0.5-1.2-1.3-2.1-2.7-2.4l-44.3-0.1c-0.9,0.2-1.6,0.4-2.3,2.2l-1.1,153.3c0.2,0.8,0.7,1.6,1.4,1.9h47.1c0.8-0.3,1.4-0.9,1.7-1.9
		l-0.1-53.6l27.1,55.5h57.2C489.6,404.2,490.2,402.9,490.1,401.6"/>
	<path class="st0" d="M617.2,326.5c0,23.1-6.1,41.8-18.2,56.2c-12.1,14.4-27.8,21.6-47.2,21.6c-17.2,0-32-5.5-44.3-16.6
		c-15.5-14-23.2-34.9-23.2-62.9c0-26.8,8.8-47.4,24.2-61.4c11.8-10.7,26.2-15.8,42.7-15.8c20.1,0,36.2,7.1,48.1,21.4
		C611.3,283.2,617.2,302.4,617.2,326.5 M568.2,326.5c0-17.9-5.6-26.8-16.8-26.8c-5.6,0-10,2.3-13.4,7c-3.2,4.4-4.9,10.8-4.9,19.2
		c0,8.3,1.5,14.8,4.6,19.4c3.1,4.6,7.3,6.9,12.7,6.9c5.6,0,9.9-2.3,12.9-6.8C566.6,340.9,568.2,334.6,568.2,326.5"/>
	<polygon points="45.3,240.3 45.3,196.3 32.8,196.3 32.8,192 62.6,192 62.6,196.3 50,196.3 50,240.3 	"/>
	<polygon points="49.2,239.5 46,239.5 46,195.6 33.6,195.6 33.6,192.8 61.8,192.8 61.8,195.6 49.2,195.6 	"/>
	<path d="M84.9,240.3v-18.8c0-5.7-1.7-7.8-6.3-7.8c-5.3,0-7.9,3.6-7.9,11v15.7h-4.5v-52.7h4.5v25.5c2.2-2.5,4.8-3.6,8.3-3.6
		c3.7,0,7.2,1.7,8.9,4.4c1.1,1.7,1.6,4,1.6,7.6v18.8H84.9z"/>
	<path d="M69.8,188.4v27c2.4-3.6,5.1-5.1,9.1-5.1c3.4,0,6.7,1.5,8.2,4c1,1.6,1.5,3.8,1.5,7.2v18h-2.9v-18c0-6.2-2-8.6-7.1-8.6
		c-5.8,0-8.7,3.9-8.7,11.8v14.9h-2.9v-51.1H69.8z"/>
	<path d="M110.4,241.1c-8.8,0-15.2-6.7-15.2-15.9c0-8.8,6.7-15.7,15.2-15.7c8.8,0,14.9,6.5,15,16.1l0,0.8H100
		c0.6,6.4,4.7,10.6,10.7,10.6c4.3,0,7.1-1.8,9.8-6.2l0.4-0.6l3.8,2.2l-0.4,0.7C121.1,238.4,116.6,241.1,110.4,241.1 M120.3,222.1
		c-1.3-5.1-5.1-8.5-9.9-8.5c-4.9,0-9,3.5-10.1,8.5H120.3z"/>
	<path d="M99.2,225.6c0.3,7.4,4.9,12.1,11.6,12.1c4.5,0,7.6-2,10.5-6.6l2.5,1.4c-3.1,5.3-7.4,7.8-13.3,7.8
		c-8.3,0-14.4-6.4-14.4-15.1c0-8.4,6.3-14.9,14.4-14.9c8.4,0,14.1,6,14.2,15.3H99.2z M121.3,222.9c-1.1-6-5.5-10-10.8-10
		c-5.6,0-10.2,4.2-11,10H121.3z"/>
	<path d="M406.7,457.4c-13.9,0-25.6-11.3-25.6-24.8c0-13.8,11.7-25,26.1-25c8.7,0,15.2,3.4,21.6,11.2l0.5,0.6l-3.8,2.8l-0.5-0.6
		c-2-2.6-3.1-3.7-4.5-4.8c-3.5-3-8.6-4.8-13.5-4.8c-11.5,0-21.2,9.4-21.2,20.6c0,11,9.6,20.3,21,20.3c6.8,0,14-3.6,17.1-8.6
		c1.3-2,1.8-4,2-7.4h-17v-4.4h22v0.8c0,6.4-0.8,9.7-3.1,13.3C423.7,453.2,415.4,457.4,406.7,457.4"/>
	<path d="M430.1,433.4c0,6.3-0.7,9.4-3,12.9c-4,6.2-12.1,10.3-20.5,10.3c-13.5,0-24.9-10.9-24.9-24c0-13.3,11.4-24.2,25.3-24.2
		c8.4,0,14.7,3.2,21,10.9l-2.5,1.9c-2-2.6-3.1-3.8-4.7-5c-3.7-3.2-8.9-5-14-5c-11.9,0-21.9,9.8-21.9,21.4c0,11.5,9.9,21,21.8,21
		c7.1,0,14.5-3.7,17.7-9c1.5-2.2,2-4.6,2.2-8.6h-17v-2.8H430.1z"/>
	<path d="M458,456.6l-15.6-22.1h-0.3v22.1h-4.7v-48.4h7.6c13.1,0,15.9,7.2,15.9,13.2c0,5.3-2.5,9.6-6.8,11.6
		c-1.6,0.8-3.4,1.1-6.3,1.4l15.9,22.2H458z M446.1,430.1c6.6,0,10.2-3.1,10.2-8.8c0-6-3.4-8.8-10.8-8.8h-3.2v17.5H446.1z"/>
	<path d="M462.3,455.8h-3.9l-15.6-22.1h-1.5v22.1h-3.1V409h6.8c10,0,15.1,4.2,15.1,12.4c0,5-2.3,9-6.4,10.9
		c-1.8,0.8-3.8,1.2-7.4,1.4L462.3,455.8z M446.1,430.9c7,0,11-3.5,11-9.5c0-6.4-3.9-9.5-11.6-9.5h-4v19.1H446.1z"/>
	<path d="M491.3,457.4c-14.1,0-25.9-11.4-25.9-24.9c0-13.5,11.9-24.9,25.9-24.9c14,0,25.9,11.4,25.9,24.9
		C517.2,446,505.4,457.4,491.3,457.4 M491.3,412.1c-11.6,0-21.1,9.2-21.1,20.5c0,11.2,9.5,20.4,21.1,20.4c11.4,0,21-9.3,21-20.4
		C512.4,421.2,502.9,412.1,491.3,412.1"/>
	<path d="M516.4,432.5c0,13.2-11.4,24.1-25.1,24.1c-13.7,0-25.1-10.9-25.1-24.1c0-13.1,11.4-24.1,25.1-24.1
		C505,408.4,516.4,419.3,516.4,432.5 M469.5,432.5c0,11.6,9.9,21.2,21.9,21.2c11.9,0,21.8-9.6,21.8-21.2c0-11.6-9.9-21.3-21.8-21.3
		C479.3,411.3,469.5,420.9,469.5,432.5"/>
	<path d="M541.1,457.4c-5.9,0-11.5-2.6-14.6-6.7c-2.1-2.8-2.7-5.2-2.7-11.5v-30.9h4.7v30c0,5.7,0.3,7.7,1.6,9.6
		c2,2.9,6.6,5.1,11,5.1c4.4,0,8.9-2.1,10.9-5c1.3-1.9,1.6-3.9,1.6-9.6v-30h4.7v30.9c0,6.4-0.6,8.7-2.7,11.6
		C552.6,454.8,547,457.4,541.1,457.4"/>
	<path d="M527.8,438.3c0,5.7,0.4,8,1.7,10c2.1,3.2,6.9,5.4,11.6,5.4c4.7,0,9.4-2.2,11.6-5.4c1.4-2,1.7-4.3,1.7-10V409h3.1v30.1
		c0,6.2-0.5,8.4-2.5,11.1c-2.9,3.9-8.2,6.4-13.9,6.4c-5.7,0-11.1-2.5-14-6.4c-2-2.7-2.5-4.9-2.5-11.1V409h3.1V438.3z"/>
	<path d="M567.6,456.6v-48.4h10.1c9.2,0,14.9,5,14.9,13.1c0,8-5.7,13-14.8,13h-5.5v22.2H567.6z M577.8,430c6.1,0,9.9-3.4,9.9-8.8
		c0-5.7-3.5-8.6-10.3-8.6h-5.1V430H577.8z"/>
	<path d="M571.5,455.8h-3.1V409h9.3c8.8,0,14.1,4.6,14.1,12.3c0,7.6-5.3,12.2-14,12.2h-6.3V455.8z M577.8,430.8
		c6.5,0,10.7-3.7,10.7-9.5c0-6.1-3.9-9.4-11.1-9.4h-5.9v18.9H577.8z"/>
</g>
<g>
	<defs>
		<path id="SVGID_1_" d="M109.6,316.6l5.4,2.7h0v0c-0.5-7.5-13.8-66.3-14.5-69.4l-5.4-2.7C95.8,250.3,109.1,309.2,109.6,316.6"/>
	</defs>
	<clipPath id="SVGID_2_">
		<use xlink:href="#SVGID_1_"  style="overflow:visible;"/>
	</clipPath>
	<path class="st1" d="M95.1,247.2l5.4,2.7c0.7,3.1,14,62.1,14.5,69.4l-5.4-2.7C109.1,309.2,95.8,250.3,95.1,247.2"/>
</g>
<g>
	<polygon class="st2" points="75.5,331.7 80.9,334.5 74.7,406.6 69.3,403.9 	"/>
	<polygon class="st3" points="69.3,403.9 74.7,406.6 25.7,406.6 20.3,403.9 	"/>
	<polygon class="st3" points="127.6,403.9 133.1,406.6 95.1,406.6 89.7,403.9 	"/>
</g>
<g>
	<defs>
		<path id="SVGID_3_" d="M140.5,333c-0.6,5.6-12.2,67.7-12.9,70.9l5.4,2.7c0.6-3.3,12.3-65.3,12.9-70.9L140.5,333z"/>
	</defs>
	<clipPath id="SVGID_4_">
		<use xlink:href="#SVGID_3_"  style="overflow:visible;"/>
	</clipPath>
	<path class="st4" d="M140.5,333l5.4,2.7c-0.6,5.6-12.2,67.7-12.9,70.9l-5.4-2.7C128.3,400.6,139.9,338.6,140.5,333"/>
</g>
<g>
	<path class="st5" d="M176.8,247.2l18.1,156.8h-44.7l-9.7-70.9c-0.6,5.6-12.2,67.7-12.9,70.9H89.7c-0.7-3.4-13.8-67.5-14.3-72.2
		l-6.2,72.2h-49l23.3-156.8h51.5c0.7,3.1,14,62.1,14.5,69.4c1.1-10.2,16.6-66.5,17.5-69.4H176.8z"/>
	<polygon class="st3" points="194.9,403.9 200.3,406.6 155.6,406.6 150.2,403.9 	"/>
	<polygon class="st2" points="176.8,247.2 182.2,249.9 200.3,406.6 194.9,403.9 	"/>
</g>
<g>
	<defs>
		<path id="SVGID_5_" d="M270.1,314c-0.1,0.7-0.2,1.4-0.4,2.2c-0.2,0.8-0.4,1.7-0.6,2.7c-0.4,2-0.6,3.3-0.8,4.1
			c-0.2,0.8-0.2,1.2-0.3,1.4l5.4,2.7c0.1-0.2,0.1-0.6,0.3-1.4c0.2-0.8,0.4-2.1,0.8-4.1c0.2-1,0.4-1.9,0.6-2.7
			c0.2-0.8,0.3-1.6,0.4-2.2L270.1,314z"/>
	</defs>
	<clipPath id="SVGID_6_">
		<use xlink:href="#SVGID_5_"  style="overflow:visible;"/>
	</clipPath>
	<path class="st6" d="M270.1,314l5.4,2.7c-0.1,0.7-0.2,1.4-0.4,2.2c-0.2,0.8-0.4,1.7-0.6,2.7c-0.4,2-0.6,3.3-0.8,4.1
		c-0.2,0.8-0.2,1.2-0.3,1.4l-5.4-2.7c0.1-0.2,0.1-0.6,0.3-1.4c0.1-0.8,0.4-2.1,0.8-4.1c0.2-1,0.4-1.9,0.6-2.7
		C269.9,315.4,270,314.7,270.1,314"/>
</g>
<g>
	<polygon class="st2" points="268.1,324.4 273.5,327.2 271.3,336 265.9,333.3 	"/>
	<polygon class="st2" points="265.9,333.3 271.3,336 268.1,347.6 262.7,344.8 	"/>
</g>
<g>
	<polygon class="st2" points="252.9,387.2 258.4,389.9 255.2,406.6 249.8,403.9 	"/>
	<polygon class="st3" points="249.8,403.9 255.2,406.6 201.5,406.6 196.1,403.9 	"/>
</g>
<g>
	<polygon class="st3" points="282.9,387.2 288.4,389.9 258.4,389.9 252.9,387.2 	"/>
	<polygon class="st2" points="299.5,247.2 304.9,249.9 346.1,406.2 340.7,403.5 	"/>
</g>
<g>
	<polygon class="st3" points="340.7,403.5 346.1,406.2 290.8,406.6 285.4,403.9 	"/>
	<path class="st5" d="M299.5,247.2l41.2,156.3l-55.3,0.4l-2.4-16.7h-30l-3.2,16.7h-53.7L245,247.2H299.5z M262.7,344.8h12.4
		l-1.8-8.6c0,0-0.1-0.5-0.3-1.3c-0.1-0.7-0.5-3.5-1.3-8.3c-0.1-0.5-0.2-1.3-0.3-2.2c-0.1-1-0.3-2.1-0.5-3.6l-0.8-7
		c-0.1,0.7-0.2,1.4-0.4,2.2c-0.2,0.8-0.4,1.7-0.6,2.7c-0.4,2-0.6,3.3-0.8,4.1c-0.2,0.8-0.2,1.2-0.3,1.4l-2.2,8.9L262.7,344.8"/>
</g>
<g>
	<defs>
		<path id="SVGID_7_" d="M404.7,249.6l5.4,2.7c-0.4-0.9-1-1.7-1.8-2.1l-5.4-2.7C403.8,247.9,404.4,248.7,404.7,249.6"/>
	</defs>
	<clipPath id="SVGID_8_">
		<use xlink:href="#SVGID_7_"  style="overflow:visible;"/>
	</clipPath>
	<path class="st7" d="M402.9,247.5l5.4,2.7c0.9,0.4,1.5,1.2,1.8,2.1l-5.4-2.7C404.4,248.6,403.8,247.9,402.9,247.5"/>
</g>
<g>
	<polygon class="st2" points="404.7,249.6 410.2,252.3 409.1,306 403.7,303.2 	"/>
</g>
<g>
	<defs>
		<path id="SVGID_9_" d="M359.5,406.6c0,0,0.1,0,0.1,0l-5.4-2.7c0,0,0,0,0,0L359.5,406.6z M354.1,403.9
			C354.1,403.9,354.2,403.9,354.1,403.9L354.1,403.9z"/>
	</defs>
	<clipPath id="SVGID_10_">
		<use xlink:href="#SVGID_9_"  style="overflow:visible;"/>
	</clipPath>
	<path class="st8" d="M354.2,403.9l5.4,2.7c0,0-0.1,0-0.1-0.1l-5.4-2.7C354.1,403.9,354.2,403.9,354.2,403.9"/>
</g>
<g>
	<polygon class="st3" points="400.6,403.9 406,406.6 359.6,406.6 354.2,403.9 	"/>
	<polygon class="st2" points="403,348.6 408.4,351.3 407.7,404.7 402.3,402 	"/>
</g>
<g>
	<defs>
		<path id="SVGID_11_" d="M402.3,402c-0.3,1.1-0.9,1.6-1.7,1.9l5.4,2.7c0.8-0.3,1.4-0.8,1.7-1.9L402.3,402z"/>
	</defs>
	<clipPath id="SVGID_12_">
		<use xlink:href="#SVGID_11_"  style="overflow:visible;"/>
	</clipPath>
	<path class="st9" d="M402.3,402l5.4,2.7c-0.3,1.1-0.9,1.6-1.7,1.9l-5.4-2.7C401.4,403.6,402,403.1,402.3,402"/>
</g>
<g>
	<polygon class="st2" points="484.5,249.6 489.9,252.3 450.6,327.6 445.2,324.8 	"/>
</g>
<g>
	<defs>
		<path id="SVGID_13_" d="M484.5,249.6l5.4,2.7c0,0,0,0,0,0v-0.2c0-0.9-0.6-1.7-1.4-2.1c-1.8-0.9-3.6-1.8-5.4-2.7
			C484,247.7,484.6,248.6,484.5,249.6"/>
	</defs>
	<clipPath id="SVGID_14_">
		<use xlink:href="#SVGID_13_"  style="overflow:visible;"/>
	</clipPath>
	<path class="st10" d="M483.1,247.3l5.4,2.7c0.8,0.4,1.5,1.3,1.4,2.3l-5.4-2.7C484.6,248.6,484,247.7,483.1,247.3"/>
</g>
<g>
	<polygon class="st2" points="445.2,324.8 450.6,327.6 492.2,403.5 486.8,400.8 	"/>
	<polygon class="st3" points="485.2,403.9 490.6,406.6 434.3,406.6 428.9,403.9 	"/>
</g>
<g>
	<defs>
		<path id="SVGID_15_" d="M485.2,403.9l5.4,2.7c1-0.5,1.7-1.8,1.6-3.1l-5.4-2.7C486.9,402.1,486.2,403.4,485.2,403.9"/>
	</defs>
	<clipPath id="SVGID_16_">
		<use xlink:href="#SVGID_15_"  style="overflow:visible;"/>
	</clipPath>
	<path class="st11" d="M486.8,400.8l5.4,2.7c0.1,1.3-0.5,2.7-1.6,3.1l-5.4-2.7C486.2,403.4,486.9,402.1,486.8,400.8"/>
</g>
<g>
	<path class="st5" d="M357.4,247.1l44.7,0.1c1.4,0.4,2.2,1.2,2.7,2.4l-1,53.7l24.9-56.1h54.2c1,0.3,1.8,1.3,1.7,2.4l-39.3,75.2
		l41.6,75.9c0.1,1.3-0.5,2.7-1.6,3.1h-56.3L403,348.6l-0.7,53.4c-0.3,1.1-0.9,1.6-1.7,1.9h-46.4c-0.7-0.3-1.2-1-1.4-1.9l2.3-152.7
		C355.8,247.5,356.5,247.4,357.4,247.1"/>
</g>
<g>
	<defs>
		<path id="SVGID_17_" d="M550.8,299.3c-5.5,0-10,2.3-13.3,7l5.1,2.6c3.3-4.7,7.8-7,13.3-7c2.6,0,4.9,0.5,6.8,1.5l-5.1-2.6
			C555.6,299.8,553.4,299.3,550.8,299.3z"/>
	</defs>
	<clipPath id="SVGID_18_">
		<use xlink:href="#SVGID_17_"  style="overflow:visible;"/>
	</clipPath>
	<path class="st12" d="M557.6,300.8l5.1,2.6c-2-1-4.3-1.5-6.8-1.5c-5.5,0-9.9,2.3-13.3,7l-5.1-2.6c3.3-4.7,7.8-7,13.3-7
		C553.4,299.3,555.6,299.8,557.6,300.8"/>
</g>
<g>
	<defs>
		<path id="SVGID_19_" d="M537.5,306.3c-3.3,4.3-5,10.7-5.1,19.1c-0.1,8.3,1.3,14.7,4.2,19.3c1.6,2.4,3.5,4.2,5.7,5.4l5.1,2.6
			c-2.3-1.1-4.2-2.9-5.7-5.4c-2.9-4.6-4.3-11-4.2-19.3c0.1-8.4,1.8-14.8,5.1-19.1L537.5,306.3z"/>
	</defs>
	<clipPath id="SVGID_20_">
		<use xlink:href="#SVGID_19_"  style="overflow:visible;"/>
	</clipPath>
	<path class="st13" d="M537.5,306.3l5.1,2.6c-3.3,4.3-5,10.7-5.1,19.1c-0.1,8.3,1.3,14.7,4.2,19.3c1.6,2.4,3.5,4.2,5.7,5.4l-5.1-2.6
		c-2.3-1.1-4.2-2.9-5.7-5.4c-2.9-4.6-4.3-11-4.2-19.3C532.5,317,534.2,310.7,537.5,306.3"/>
</g>
<g>
	<defs>
		<path id="SVGID_21_" d="M598.4,268.7l5.1,2.6c-5.3-6.5-11.4-11.5-18.3-15l-5.1-2.6C587,257.2,593.1,262.2,598.4,268.7"/>
	</defs>
	<clipPath id="SVGID_22_">
		<use xlink:href="#SVGID_21_"  style="overflow:visible;"/>
	</clipPath>
	<path class="st14" d="M580,253.7l5.1,2.6c7,3.5,13.1,8.5,18.3,15l-5.1-2.6C593.1,262.2,587,257.2,580,253.7"/>
</g>
<g>
	<path class="st5" d="M598.4,268.7c11.5,14.2,17.1,33.3,16.7,57.3c-0.3,23-6.6,41.6-18.8,56c-12.1,14.3-27.7,21.5-46.8,21.5
		c-16.9,0-31.4-5.5-43.3-16.5c-15-13.9-22.3-34.8-21.9-62.7c0.4-26.7,8.7-47.1,24.8-61.2c12-10.5,26.1-15.7,42.3-15.7
		C571.2,247.4,586.8,254.5,598.4,268.7 M561.9,344.8c3.2-4.5,4.9-10.8,5-18.8c0.3-17.8-5.1-26.7-16.1-26.7c-5.5,0-9.9,2.3-13.3,7
		c-3.3,4.3-5,10.7-5.1,19.1c-0.1,8.3,1.3,14.7,4.2,19.3c2.9,4.6,7.1,6.8,12.4,6.8C554.6,351.6,558.8,349.3,561.9,344.8"/>
</g>
<g>
	<defs>
		<path id="SVGID_23_" d="M615.1,326c-0.3,23-6.6,41.6-18.8,56c-12.1,14.3-27.7,21.5-46.8,21.5c-10.7,0-20.4-2.2-29.1-6.6l5.1,2.6
			c8.7,4.4,18.4,6.6,29.1,6.6c19.1,0,34.7-7.2,46.8-21.5c12.2-14.4,18.5-33.1,18.8-56c0.4-24-5.2-43.1-16.8-57.3l-5.1-2.6
			C609.9,282.9,615.5,302,615.1,326"/>
	</defs>
	<clipPath id="SVGID_24_">
		<use xlink:href="#SVGID_23_"  style="overflow:visible;"/>
	</clipPath>
	<path class="st15" d="M598.4,268.7l5.1,2.6c11.5,14.2,17.1,33.3,16.8,57.3c-0.3,23-6.6,41.6-18.8,56
		c-12.1,14.3-27.7,21.5-46.8,21.5c-10.7,0-20.4-2.2-29.1-6.6l-5.1-2.6c8.7,4.4,18.4,6.6,29.1,6.6c19.1,0,34.7-7.2,46.8-21.5
		c12.2-14.4,18.5-33.1,18.8-56C615.5,302,609.9,282.9,598.4,268.7"/>
</g>
<g>
	<polygon class="st5" points="33.3,315.7 21.2,398 69.4,396.9 74.1,344.6 	"/>
	<path d="M597.6,417.1c0.3-0.7,0.7-1.3,1.2-1.8c0.5-0.5,1.1-0.9,1.8-1.2c0.7-0.3,1.4-0.4,2.2-0.4c0.8,0,1.5,0.1,2.2,0.4
		c0.7,0.3,1.3,0.7,1.8,1.2c0.5,0.5,0.9,1.1,1.2,1.8c0.3,0.7,0.5,1.4,0.5,2.3c0,0.8-0.2,1.6-0.5,2.3c-0.3,0.7-0.7,1.3-1.2,1.8
		c-0.5,0.5-1.1,0.9-1.8,1.2c-0.7,0.3-1.4,0.4-2.2,0.4c-0.8,0-1.5-0.1-2.2-0.4c-0.7-0.3-1.3-0.7-1.8-1.2c-0.5-0.5-0.9-1.1-1.2-1.8
		c-0.3-0.7-0.5-1.5-0.5-2.3C597.1,418.5,597.3,417.8,597.6,417.1 M598.5,421.3c0.2,0.6,0.6,1.1,1,1.6c0.4,0.4,0.9,0.8,1.5,1
		c0.6,0.3,1.2,0.4,1.9,0.4c0.7,0,1.3-0.1,1.9-0.4c0.6-0.2,1.1-0.6,1.5-1c0.4-0.4,0.8-1,1-1.6c0.2-0.6,0.4-1.2,0.4-2
		c0-0.7-0.1-1.3-0.4-1.9c-0.2-0.6-0.6-1.1-1-1.5c-0.4-0.4-0.9-0.8-1.5-1c-0.6-0.2-1.2-0.4-1.9-0.4c-0.7,0-1.3,0.1-1.9,0.4
		c-0.6,0.3-1.1,0.6-1.5,1c-0.4,0.4-0.8,0.9-1,1.5c-0.2,0.6-0.4,1.2-0.4,1.9C598.2,420,598.3,420.7,598.5,421.3 M603.3,416
		c0.8,0,1.4,0.2,1.8,0.5c0.4,0.3,0.6,0.8,0.6,1.4c0,0.6-0.2,1-0.5,1.3c-0.3,0.3-0.8,0.4-1.3,0.5l1.9,3h-1.1l-1.8-2.9h-1.1v2.9h-1
		V416H603.3z M602.8,419c0.2,0,0.5,0,0.7,0c0.2,0,0.4-0.1,0.6-0.1c0.2-0.1,0.3-0.2,0.4-0.3c0.1-0.1,0.1-0.4,0.1-0.6
		c0-0.2,0-0.4-0.1-0.5c-0.1-0.1-0.2-0.2-0.3-0.3c-0.1-0.1-0.3-0.1-0.5-0.1c-0.2,0-0.4,0-0.5,0h-1.4v2.1H602.8z"/>
</g>
</svg>
